<?xml version="1.0" encoding="UTF-8"?>
<!DOCTYPE svg PUBLIC "-//W3C//DTD SVG 1.1//EN" "http://www.w3.org/Graphics/SVG/1.1/DTD/svg11.dtd">
<svg xmlns="http://www.w3.org/2000/svg" version="1.1" width="512px" height="512px" style="shape-rendering:geometricPrecision; text-rendering:geometricPrecision; image-rendering:optimizeQuality; fill-rule:evenodd; clip-rule:evenodd" xmlns:xlink="http://www.w3.org/1999/xlink">
<g><path style="opacity:0.994" fill="#000000" d="M 37.5,-0.5 C 128.167,-0.5 218.833,-0.5 309.5,-0.5C 344.41,32.9089 378.91,66.9089 413,101.5C 413.667,102.833 414.333,104.167 415,105.5C 415.5,128.831 415.667,152.164 415.5,175.5C 404.833,175.5 394.167,175.5 383.5,175.5C 383.5,159.5 383.5,143.5 383.5,127.5C 359.498,127.667 335.498,127.5 311.5,127C 299,123.833 291.167,116 288,103.5C 287.5,79.5023 287.333,55.5023 287.5,31.5C 207.499,31.3333 127.499,31.5 47.5,32C 40.4342,32.4469 35.6008,35.9469 33,42.5C 31.8413,113.465 31.3413,184.465 31.5,255.5C 31.3413,326.535 31.8413,397.535 33,468.5C 35.6008,475.053 40.4342,478.553 47.5,479C 84.8318,479.5 122.165,479.667 159.5,479.5C 159.5,490.167 159.5,500.833 159.5,511.5C 118.833,511.5 78.1667,511.5 37.5,511.5C 17.8333,505.833 5.16667,493.167 -0.5,473.5C -0.5,328.167 -0.5,182.833 -0.5,37.5C 5.16667,17.8333 17.8333,5.16667 37.5,-0.5 Z"/></g>
<g><path style="opacity:0.998" fill="#000000" d="M 127.5,255.5 C 138.167,255.5 148.833,255.5 159.5,255.5C 159.5,298.167 159.5,340.833 159.5,383.5C 180.833,383.5 202.167,383.5 223.5,383.5C 223.5,394.167 223.5,404.833 223.5,415.5C 194.831,415.667 166.165,415.5 137.5,415C 133,413.167 129.833,410 128,405.5C 127.5,355.501 127.333,305.501 127.5,255.5 Z"/></g>
<g><path style="opacity:0.971" fill="#000000" d="M 292.5,255.5 C 327.632,252.468 351.798,267.135 365,299.5C 365.794,302.471 366.461,305.471 367,308.5C 367.667,326.5 367.667,344.5 367,362.5C 360.833,391.333 343.333,408.833 314.5,415C 279.347,418.517 255.181,404.017 242,371.5C 241.206,368.529 240.539,365.529 240,362.5C 239.333,344.5 239.333,326.5 240,308.5C 246.347,279.653 263.847,261.987 292.5,255.5 Z M 296.5,288.5 C 315.692,286.332 328.192,294.332 334,312.5C 335.52,325.462 335.853,338.462 335,351.5C 333.589,367.181 325.423,377.348 310.5,382C 291.293,384.655 278.793,376.822 273,358.5C 271.48,345.538 271.147,332.538 272,319.5C 273.522,303.735 281.689,293.402 296.5,288.5 Z"/></g>
<g><path style="opacity:0.99" fill="#000000" d="M 511.5,279.5 C 511.5,282.167 511.5,284.833 511.5,287.5C 479.5,287.5 447.5,287.5 415.5,287.5C 415.5,319.5 415.5,351.5 415.5,383.5C 436.833,383.5 458.167,383.5 479.5,383.5C 479.5,372.833 479.5,362.167 479.5,351.5C 468.833,351.5 458.167,351.5 447.5,351.5C 447.5,340.833 447.5,330.167 447.5,319.5C 460.837,319.333 474.171,319.5 487.5,320C 493.388,321.563 498.554,324.396 503,328.5C 506.902,332.978 509.735,337.978 511.5,343.5C 511.5,359.5 511.5,375.5 511.5,391.5C 508.637,400.204 503.304,407.037 495.5,412C 492.911,413.197 490.244,414.197 487.5,415C 460.833,415.667 434.167,415.667 407.5,415C 395,411.833 387.167,404 384,391.5C 383.333,354.167 383.333,316.833 384,279.5C 387.167,267 395,259.167 407.5,256C 434.167,255.333 460.833,255.333 487.5,256C 493.214,257.392 498.214,260.059 502.5,264C 506.626,268.6 509.626,273.766 511.5,279.5 Z"/></g>
</svg>
