<?xml version="1.0" encoding="UTF-8"?>
<!DOCTYPE svg PUBLIC "-//W3C//DTD SVG 1.1//EN" "http://www.w3.org/Graphics/SVG/1.1/DTD/svg11.dtd">
<svg xmlns="http://www.w3.org/2000/svg" version="1.1" width="512px" height="512px" style="shape-rendering:geometricPrecision; text-rendering:geometricPrecision; image-rendering:optimizeQuality; fill-rule:evenodd; clip-rule:evenodd" xmlns:xlink="http://www.w3.org/1999/xlink">
<g><path style="opacity:0.944" fill="#000000" d="M 468.5,-0.5 C 473.833,-0.5 479.167,-0.5 484.5,-0.5C 502.604,6.15672 510.104,19.1567 507,38.5C 473.008,104.653 437.841,170.153 401.5,235C 407.223,246.279 409.89,258.279 409.5,271C 406.535,311.158 399.702,350.658 389,389.5C 378.729,428.249 367.062,466.582 354,504.5C 353.033,507.621 351.2,509.954 348.5,511.5C 342.5,511.5 336.5,511.5 330.5,511.5C 266.037,505.856 209.37,482.023 160.5,440C 138.8,419.747 121.633,396.247 109,369.5C 106.09,363.32 105.423,356.987 107,350.5C 108.5,349 110,347.5 111.5,346C 173.581,325.893 227.415,292.726 273,246.5C 289.697,217.558 314.864,202.558 348.5,201.5C 381.921,140.326 415.088,78.9929 448,17.5C 452.875,9.11604 459.708,3.11604 468.5,-0.5 Z M 473.5,20.5 C 483.482,19.9817 487.649,24.6484 486,34.5C 453.508,95.4865 420.508,156.153 387,216.5C 382.073,212.284 376.573,208.95 370.5,206.5C 402.667,146.833 434.833,87.1667 467,27.5C 468.694,24.6424 470.861,22.309 473.5,20.5 Z M 337.5,223.5 C 369.962,222.131 386.962,237.631 388.5,270C 388.018,282.959 386.518,295.793 384,308.5C 354.5,289.667 325,270.833 295.5,252C 305.292,236.273 319.292,226.773 337.5,223.5 Z M 281.5,268.5 C 314.678,289.587 347.678,310.921 380.5,332.5C 378.669,340.49 376.836,348.49 375,356.5C 367.167,351.333 359.333,346.167 351.5,341C 339.104,339.392 334.604,344.559 338,356.5C 347.557,363.723 357.391,370.556 367.5,377C 368.574,377.739 369.241,378.739 369.5,380C 359.678,416.465 348.845,452.632 337,488.5C 336.612,489.428 335.945,490.095 335,490.5C 308.405,487.981 282.571,482.148 257.5,473C 278.617,448.107 295.951,420.773 309.5,391C 308.167,383.001 303.501,379.667 295.5,381C 293.413,381.792 291.579,382.959 290,384.5C 275.377,413.443 257.544,440.109 236.5,464.5C 213.115,453.812 192.115,439.645 173.5,422C 205.396,406.73 234.563,387.564 261,364.5C 263.753,355.674 260.586,350.34 251.5,348.5C 249.058,349.036 246.725,349.869 244.5,351C 217.958,372.867 189.125,391.367 158,406.5C 146.503,393.331 137.003,378.831 129.5,363C 172.719,347.483 212.219,325.65 248,297.5C 258.23,304.727 268.73,311.56 279.5,318C 290.638,318.524 294.805,313.357 292,302.5C 283.617,295.943 275.117,289.609 266.5,283.5C 271.215,278.119 276.215,273.119 281.5,268.5 Z"/></g>
<g><path style="opacity:0.946" fill="#000000" d="M 106.5,234.5 C 126.105,233.776 137.105,243.11 139.5,262.5C 137.974,279.693 128.641,288.693 111.5,289.5C 90.8301,286.978 81.9968,275.312 85,254.5C 88.526,243.804 95.6926,237.137 106.5,234.5 Z M 110.5,255.5 C 115.021,255.687 117.688,258.02 118.5,262.5C 115.587,269.121 111.42,270.121 106,265.5C 104.558,260.723 106.058,257.39 110.5,255.5 Z"/></g>
<g><path style="opacity:0.943" fill="#000000" d="M 38.5,302.5 C 61.0896,301.371 76.2563,311.371 84,332.5C 88.3131,363.211 75.1464,380.877 44.5,385.5C 23.7324,383.887 10.2324,373.22 4,353.5C 0.74771,326.289 12.2477,309.289 38.5,302.5 Z M 41.5,323.5 C 54.9915,323.826 62.6582,330.659 64.5,344C 63.0033,356.163 56.1699,362.997 44,364.5C 28.085,361.005 22.085,351.339 26,335.5C 29.594,329.399 34.7607,325.399 41.5,323.5 Z"/></g>
<g><path style="opacity:0.892" fill="#000000" d="M 311.5,318.5 C 324.116,318.943 327.949,324.943 323,336.5C 319.319,339.36 315.152,340.193 310.5,339C 304.891,335.723 303.058,330.89 305,324.5C 306.494,321.686 308.66,319.686 311.5,318.5 Z"/></g>
<g><path style="opacity:0.947" fill="#000000" d="M 63.5,410.5 C 81.515,408.082 93.3483,415.415 99,432.5C 101.466,448.07 95.6325,459.237 81.5,466C 58.6572,470.796 45.3239,461.796 41.5,439C 42.9715,424.856 50.3048,415.356 63.5,410.5 Z M 67.5,431.5 C 73.6295,430.555 77.2962,433.055 78.5,439C 77.2961,445.106 73.6294,447.439 67.5,446C 62.2138,441.169 62.2138,436.335 67.5,431.5 Z"/></g>
</svg>
